<?xml version="1.0" encoding="UTF-8"?>
<svg xmlns="http://www.w3.org/2000/svg" xmlns:xlink="http://www.w3.org/1999/xlink" width="32pt" height="32pt" viewBox="0 0 32 32" version="1.1">
<g id="surface1">
<path style=" stroke:none;fill-rule:nonzero;" d="M 31.601562 15.183594 L 18.207031 5.847656 C 17.683594 5.398438 17.253906 5.597656 17.253906 6.285156 L 17.253906 10.191406 C 17.253906 10.882812 16.6875 11.449219 15.996094 11.449219 L 7.707031 11.460938 L 1.25 11.460938 L 1.25 11.46875 C 0.5625 11.472656 0 12.035156 0 12.726562 L 0 19.316406 C 0 20.003906 0.566406 20.570312 1.253906 20.570312 L 15.855469 20.546875 L 16.003906 20.546875 C 16.691406 20.550781 17.253906 21.113281 17.253906 21.804688 L 17.253906 25.710938 C 17.253906 26.398438 17.683594 26.597656 18.207031 26.148438 L 31.601562 16.8125 C 32.128906 16.363281 32.128906 15.632812 31.601562 15.183594 Z M 31.601562 15.183594 "/>
</g>
</svg>
